<svg version="1.2" xmlns="http://www.w3.org/2000/svg" viewBox="0 0 1024 1024" width="1024" height="1024"><style>.a{fill:#494949}.b{fill:#535258}</style><path class="a" d="m44.6 360.8c-11.2 0-19 7.8-19 18.8v113.6c0 11 7.8 18.8 19 18.8h94.4v-88.6h-47.3v50.8h-18.8v-75.4h57.7l7.6-19.2v-18.8zm160.9 82.9l4.3-44.9h5.2l4.3 44.9zm-32.4-82.9l-21.1 132.4v18.8h47l3.1-30.5h20.7l2.8 30.5h47.3v-18.8l-21.2-132.4zm170 151.2h39.6l11.6-72.6h3.9v72.6h46v-18.8l-15.3-132.4h-52.9l-11.5 59.6h-3.2l-11.5-59.6h-52.7l-15.5 132.4v18.8h46.2v-72.6h3.7zm180.1-113.2v75.4h-18.8v-75.4zm28.3 113.2c11.3 0 19-7.8 19-18.8v-113.6c0-11-7.7-18.8-19-18.8h-75.4c-11.2 0-19 7.8-19 18.8v113.6c0 11 7.8 18.8 19 18.8zm102.4-113.2v28.3h-18.8v-28.3zm-66.1-38v151.2h47.3v-47.1h9.5l12.8 47.1h46.2v-18.8l-14.9-37.1c7.1-2 12.5-10 12.5-17.1v-59.4c0-11-7.7-18.8-18.8-18.8zm175.9 151.2v-151.2h-47.1v151.2zm12.9 0h107v-37.8h-53.2v-5.2l51.2-69.3v-38.9h-105v18.8l7.4 19.2h43.6v5.2l-51 69.4zm221 0v-37.8h-54v-20.8h46.4v-37.8h-46.4v-16.8h46.4l7.6-19.2v-18.8h-101.1v151.2z"/><path class="b" d="m276.7 664v-37.8h-54v-20.7h46.4v-37.8h-46.4v-16.9h46.4l7.6-19.2v-18.8h-101.1v151.2zm85.1-81.2l-22-70h-50.1v151.2h43.4v-18.8l-6.1-51h3.7l22.3 69.8h50.1v-151.2h-43.7v18.8l6.3 51.2zm77.6-70c-11.3 0-19.1 7.8-19.1 18.8v113.6c0 11 7.8 18.8 19.1 18.8h94.3v-88.6h-47.3v50.8h-18.8v-75.4h57.7l7.6-19.2v-18.8zm158.7 151.2v-151.2h-47v151.2zm89.4-81.2l-22.1-70h-50.1v151.2h43.4v-18.8l-6-51h3.7l22.2 69.8h50.1v-151.2h-43.6v18.8l6.3 51.2zm159.6 81.2v-37.8h-54v-20.7h46.4v-37.8h-46.4v-16.9h46.4l7.6-19.2v-18.8h-101.1v151.2z"/></svg>